<svg width="232" height="61" viewBox="0 0 232 61" xmlns="http://www.w3.org/2000/svg"><title>Coinimi</title><path d="M47.609 34.333c-.141.02-.28.043-.427.043a3.02 3.02 0 0 1-2.706-1.689l-7.267 1.661a1.845 1.845 0 0 1-.616 1.088l1.78 10.171c.522.171.947.544 1.185 1.032l9.668-3.054c-.003-.038-.022-.07-.022-.109 0-.477.261-.876.635-1.116l-2.23-8.027zm-20.041 17.43l8.242-3.688a2 2 0 0 1-.087-.555c0-.048.011-.094.015-.141L17.012 38.27a5.39 5.39 0 0 1-1.199 1.317l7.835 10.927a3.004 3.004 0 0 1 1.291-.298c1.132 0 2.108.627 2.629 1.547zM12.418 30c.017 0 .034-.005.051-.005a5.35 5.35 0 0 1 2.882.849l7.282-8.217a3.335 3.335 0 0 1-.727-2.069 3.36 3.36 0 0 1 2.93-3.326l-.181-6.139a2.008 2.008 0 0 1-1.233-.669l-11.14 5.569c.008.061.018.121.018.184 0 .561-.307 1.046-.76 1.308L12.418 30zm32.096-13.089l-18.205-6.332c-.186.172-.404.31-.645.403l.184 6.264a3.356 3.356 0 0 1 2.592 2.189l16.058-2.362c.002-.055.011-.108.016-.162zM16.607 31.968a5.332 5.332 0 0 1 1.119 2.251l15.835-.459c.049-.325.183-.619.377-.865l-7.047-9.396a3.332 3.332 0 0 1-1.615.43c-.465 0-.907-.095-1.31-.264l-7.359 8.303zM37.01 45.64l-1.707-9.756a1.852 1.852 0 0 1-1.621-1.116l-15.837.459c.002.054.017.105.017.16 0 .582-.116 1.132-.287 1.657l18.699 9.097c.204-.218.453-.39.736-.501zm10.062-17.319l.534-7.485a3.695 3.695 0 0 1-2.776-2.108l-16.241 2.388a3.345 3.345 0 0 1-.889 1.776l7.057 9.41c.198-.071.408-.116.629-.116.775 0 1.437.475 1.714 1.15l7.086-1.62c-.015-.124-.037-.245-.037-.373 0-1.637 1.3-2.963 2.923-3.022zm1.547-7.468l-.544 7.606a3.023 3.023 0 0 1 2.14 2.884c0 1.171-.67 2.175-1.642 2.68l2.267 8.163c.602.135 1.06.647 1.06 1.29 0 .744-.603 1.348-1.348 1.348-.329 0-.619-.132-.852-.327l-9.945 3.14a2.015 2.015 0 0 1-3.433 1.318l-8.404 3.759c.031.174.054.351.054.535a3.033 3.033 0 1 1-5.158-2.162L14.965 40.14a5.323 5.323 0 0 1-2.496.639 5.392 5.392 0 0 1-1.057-10.677l-.873-12.433a1.514 1.514 0 1 1 1.296-2.583l11.128-5.564a2.022 2.022 0 0 1 1.976-2.444c1.089 0 1.97.862 2.014 1.94l18.065 6.284a3.692 3.692 0 0 1 3.175-1.821 3.707 3.707 0 0 1 3.707 3.707c0 1.902-1.437 3.451-3.281 3.665zM59.314 30.5c0-15.888-12.926-28.814-28.814-28.814-15.889 0-28.815 12.926-28.815 28.814 0 15.889 12.926 28.815 28.815 28.815 15.888 0 28.814-12.926 28.814-28.815zm1.686 0C61 47.318 47.317 61 30.5 61 13.682 61 0 47.318 0 30.5 0 13.683 13.682 0 30.5 0 47.317 0 61 13.683 61 30.5zm168.107-12.428h2.709v-4.343h-2.709v4.343zm0 26.359h2.709V22.243h-2.709v22.188zm-12.556-22.833a8.376 8.376 0 0 0-4.128 1.075c-1.291.717-2.265 1.806-2.923 3.268-.403-1.462-1.198-2.551-2.387-3.268-1.19-.716-2.516-1.075-3.978-1.075-1.805 0-3.29.387-4.45 1.161-1.162.774-2.1 1.849-2.816 3.225h-.129v-3.741h-2.494v22.188h2.709V32.047c0-1.175.129-2.257.386-3.247.258-.988.652-1.848 1.182-2.58a5.519 5.519 0 0 1 2.065-1.72c.845-.415 1.841-.623 2.988-.623.86 0 1.592.144 2.193.43a3.684 3.684 0 0 1 1.441 1.183c.358.502.616 1.09.774 1.762.156.674.236 1.384.236 2.129v15.05h2.709V31.875c0-1.032.093-2.028.28-2.989.185-.96.508-1.812.967-2.557a5.15 5.15 0 0 1 1.849-1.786c.773-.444 1.748-.666 2.924-.666 1.949 0 3.311.481 4.086 1.441.773.961 1.16 2.358 1.16 4.192v14.921h2.709v-15.05c0-5.188-2.451-7.783-7.353-7.783zm-30.057 11.739c0-1.175-.165-2.329-.494-3.462a9.78 9.78 0 0 0-1.463-3.031 7.475 7.475 0 0 0-2.429-2.15c-.976-.544-2.106-.817-3.397-.817-1.29 0-2.422.273-3.397.817a7.468 7.468 0 0 0-2.43 2.15 9.8 9.8 0 0 0-1.462 3.031 12.319 12.319 0 0 0-.495 3.462c0 1.176.165 2.329.495 3.461a9.789 9.789 0 0 0 1.462 3.033 7.454 7.454 0 0 0 2.43 2.149c.975.545 2.107.817 3.397.817 1.291 0 2.421-.272 3.397-.817a7.46 7.46 0 0 0 2.429-2.149A9.768 9.768 0 0 0 186 36.798c.329-1.132.494-2.285.494-3.461zm2.021-4.537c.458 1.419.688 2.932.688 4.537 0 1.606-.23 3.118-.688 4.537-.459 1.418-1.133 2.659-2.021 3.719a9.56 9.56 0 0 1-3.289 2.516c-1.305.616-2.803.924-4.494.924-1.692 0-3.19-.308-4.494-.924a9.555 9.555 0 0 1-3.29-2.516c-.888-1.06-1.562-2.301-2.02-3.719-.459-1.419-.689-2.931-.689-4.537 0-1.605.23-3.118.689-4.537.458-1.419 1.132-2.658 2.02-3.718a9.8 9.8 0 0 1 3.29-2.538c1.304-.63 2.802-.946 4.494-.946 1.691 0 3.189.316 4.494.946a9.806 9.806 0 0 1 3.289 2.538c.888 1.06 1.562 2.299 2.021 3.718zm-26.014-4.901c-.631-.732-1.47-1.297-2.516-1.699-1.047-.401-2.343-.602-3.892-.602a8.075 8.075 0 0 0-4.342 1.226c-1.32.817-2.236 1.899-2.752 3.246h-.086v-3.827h-2.709v22.188h2.709V31.488c.028-1.089.208-2.1.538-3.031.328-.931.787-1.735 1.375-2.409a6.276 6.276 0 0 1 2.15-1.59c.846-.387 1.813-.581 2.903-.581 1.089 0 2 .172 2.73.516.73.344 1.312.817 1.742 1.419.43.603.731 1.312.903 2.129.171.816.257 1.698.257 2.644v13.846h2.709V30.155c0-1.318-.129-2.508-.386-3.569-.258-1.06-.704-1.957-1.333-2.687zm-24.166-5.827h2.709v-4.343h-2.709v4.343zm0 26.359h2.709V22.243h-2.709v22.188zm-6.794-11.094c0-1.175-.165-2.329-.494-3.462a9.802 9.802 0 0 0-1.463-3.031 7.475 7.475 0 0 0-2.429-2.15c-.976-.544-2.107-.817-3.398-.817-1.289 0-2.421.273-3.396.817a7.468 7.468 0 0 0-2.43 2.15 9.777 9.777 0 0 0-1.462 3.031 12.319 12.319 0 0 0-.495 3.462c0 1.176.165 2.329.495 3.461a9.767 9.767 0 0 0 1.462 3.033 7.454 7.454 0 0 0 2.43 2.149c.975.545 2.107.817 3.396.817 1.291 0 2.422-.272 3.398-.817a7.46 7.46 0 0 0 2.429-2.149 9.79 9.79 0 0 0 1.463-3.033c.329-1.132.494-2.285.494-3.461zm2.021-4.537c.458 1.419.688 2.932.688 4.537 0 1.606-.23 3.118-.688 4.537-.459 1.418-1.133 2.659-2.021 3.719a9.56 9.56 0 0 1-3.289 2.516c-1.305.616-2.803.924-4.495.924-1.691 0-3.189-.308-4.493-.924a9.555 9.555 0 0 1-3.29-2.516c-.888-1.06-1.562-2.301-2.02-3.719-.459-1.419-.689-2.931-.689-4.537 0-1.605.23-3.118.689-4.537.458-1.419 1.132-2.658 2.02-3.718a9.8 9.8 0 0 1 3.29-2.538c1.304-.63 2.802-.946 4.493-.946 1.692 0 3.19.316 4.495.946a9.806 9.806 0 0 1 3.289 2.538c.888 1.06 1.562 2.299 2.021 3.718zm-26.058 3.935h2.923c-.2 1.892-.644 3.598-1.332 5.117-.688 1.52-1.577 2.81-2.666 3.87a11.328 11.328 0 0 1-3.849 2.451c-1.477.574-3.117.86-4.923.86-2.408 0-4.523-.437-6.343-1.312-1.82-.874-3.332-2.042-4.536-3.504-1.204-1.462-2.106-3.153-2.709-5.074-.603-1.92-.903-3.941-.903-6.062 0-2.122.3-4.143.903-6.064.603-1.92 1.505-3.619 2.709-5.096 1.204-1.475 2.716-2.651 4.536-3.525 1.82-.874 3.935-1.312 6.343-1.312 1.462 0 2.888.215 4.278.645a12.37 12.37 0 0 1 3.784 1.914 11.173 11.173 0 0 1 2.838 3.117c.759 1.233 1.24 2.652 1.441 4.257h-2.924c-.258-1.175-.682-2.228-1.269-3.16a8.653 8.653 0 0 0-2.149-2.344 9.616 9.616 0 0 0-2.795-1.44 10.359 10.359 0 0 0-3.204-.494c-2.036 0-3.784.386-5.246 1.16-1.462.774-2.659 1.8-3.591 3.075-.932 1.275-1.619 2.716-2.064 4.321a18.473 18.473 0 0 0-.667 4.946c0 1.662.223 3.303.667 4.922.445 1.621 1.132 3.069 2.064 4.343.932 1.277 2.129 2.301 3.591 3.075 1.462.774 3.21 1.162 5.246 1.162 1.432 0 2.723-.259 3.87-.775a9.175 9.175 0 0 0 2.967-2.107 10.802 10.802 0 0 0 2.021-3.118c.516-1.189.845-2.472.989-3.848z" fill="#A3A3A3" fill-rule="evenodd"/></svg>