<svg width="180" height="29" viewBox="0 0 180 29" xmlns="http://www.w3.org/2000/svg"><title>logo_bitcoin</title><path d="M75.098 16.26c-.455-2.153-1.743-3.642-3.848-4.324-2.08-.673-3.986-.234-5.58 1.235-1.656 1.53-2.14 3.467-1.77 5.68.453 2.713 2.929 4.822 5.24 4.738 2.054.003 3.496-.613 4.619-1.916 1.356-1.572 1.761-3.412 1.339-5.413zm3.387 1.033c.09 2.73-.85 5.008-2.863 6.85-1.222 1.118-3.477 2.308-5.59 2.23-3.606-.028-6.117-1.2-7.935-3.71-1.035-1.427-1.505-3.048-1.543-4.82-.042-2.031.483-3.865 1.703-5.492 1.323-1.764 3.106-2.823 5.23-3.264 2.592-.537 5.057-.141 7.265 1.366 2.393 1.634 3.635 3.923 3.733 6.84zm69.279-.453c-.39-3.786-3.968-5.87-7.196-4.973-2.481.688-4.29 3.057-4.2 5.753.031.41.023.827.103 1.226.596 2.95 3.024 4.946 6.02 4.728 1.833-.132 3.265-.957 4.294-2.463.882-1.289 1.139-2.73.979-4.27zm3.337.772c.025 4.171-2.784 7.692-6.947 8.548-3.11.638-5.96-.001-8.34-2.175-1.49-1.36-2.319-3.102-2.613-5.118-.258-1.754-.028-3.424.736-5.002 1.354-2.797 3.627-4.367 6.674-4.86 2.308-.373 4.48.028 6.45 1.274 2.675 1.693 3.989 4.176 4.04 7.333zm-134.287.015c-.586-1.473-1.946-2.336-3.744-2.345-2.248-.011-4.497-.004-6.745 0-.162 0-.342-.054-.492.108v8.019c2.682 0 5.29.025 7.897-.015.836-.012 1.587-.364 2.198-.976 1.165-1.167 1.539-3.15.886-4.791zm-10.983-5.12c2.51 0 4.948.051 7.383-.022 1.216-.037 2.111-.732 2.636-1.865.317-.683.333-1.4.296-2.128-.082-1.616-.95-2.63-2.523-3a5 5 0 0 0-1.148-.112c-2.03-.005-4.059-.005-6.09 0-.182 0-.386-.068-.554.109v7.018zm14.617 5.876c.272 1.798-.037 3.53-1.131 5.04-1.055 1.453-2.468 2.339-4.262 2.627-.989.16-1.977.117-2.967.142-.214.006-.43.001-.747.001 0 .643.01 1.197-.003 1.75-.011.618-.212.828-.824.845-.58.015-1.162.018-1.741-.002-.518-.018-.748-.247-.767-.763C7.984 27.445 8 26.865 8 26.248c-.728-.103-1.416-.046-2.191-.042 0 .566.006 1.09-.001 1.615-.01.745-.216.958-.937.969-.508.007-1.016.008-1.525 0-.676-.011-.865-.194-.876-.855-.01-.553-.003-1.106-.003-1.677-.33-.103-.62-.064-.903-.062-1.626.01-1.579.09-1.558-1.598.001-.145-.005-.291 0-.436.025-.51.185-.697.7-.72.554-.024 1.11-.006 1.713-.006v-18C1.899 5.302 1.346 5.4.8 5.38c-.686-.026-.785-.115-.793-.814-.005-.46.004-.92-.002-1.38-.006-.396.182-.575.575-.57.601.009 1.201.003 1.887.003 0-.598-.005-1.147.002-1.697.009-.728.18-.903.89-.914a39.386 39.386 0 0 1 1.598 0c.6.016.83.238.848.836.016.555.004 1.112.004 1.721h2.144c.105-.494.031-1.024.044-1.545C8.017.2 8.2.012 9.035.006c.363-.002.726 0 1.09 0 1.114 0 1.215.1 1.216 1.183v1.44c.64 0 1.215-.014 1.788.003.972.03 1.913.207 2.834.53 2.694.94 3.939 3.786 3.59 6.28-.26 1.86-1.16 3.306-2.806 4.228.02.196.17.191.26.226 2.059.799 3.126 2.393 3.441 4.487zm84.15-6.035c-.369-1.135-.967-2.097-2.037-2.712-.639-.368-1.326-.536-2.047-.663-2.89-.512-6.01.84-7.405 3.512-.144-.04-.11-.176-.145-.274.002-.63.026-1.26.005-1.888-.021-.702-.332-.99-1.04-1.025-.12-.005-.241-.002-.362-.002-1.526-.007-1.749.215-1.75 1.751 0 4.358.002 8.717-.002 13.074 0 .366.052.721.093 1.081.05.424.291.626.682.738.455.13.914.072 1.368.067.697-.01 1.016-.302 1.122-.982.034-.213.02-.435.02-.652.004-2.251-.003-4.503.009-6.755.011-2.471 1.64-5.447 5.107-5.782 1.614-.155 2.999.367 3.381 2.29.126.628.125 1.25.127 1.875.013 2.712.01 5.424.002 8.136 0 .365.053.72.096 1.08.048.386.255.605.626.703.596.157 1.199.132 1.793.036.348-.055.591-.284.685-.665a3.33 3.33 0 0 0 .089-.788c-.002-2.978.021-5.956-.013-8.934-.012-1.081-.065-2.175-.404-3.22zm75.252.935c-.296-1.673-.954-3.155-2.597-3.854-2.42-1.029-4.72-.695-6.81.93-.776.603-1.368 1.371-1.86 2.245-.153-.207-.176-.403-.245-.581-.284-.726-.61-1.434-1.215-1.95-1.285-1.094-2.801-1.372-4.417-1.121-2.15.335-3.696 1.567-4.797 3.403-.207-.092-.095-.295-.153-.44-.001-.533.026-1.069-.01-1.599-.05-.726-.341-.99-1.056-1.016a13.686 13.686 0 0 0-1.017 0c-.665.024-.975.294-1.066.947-.03.214-.013.435-.013.652v11.122c0 .896-.014 1.793.003 2.69.018.96.371 1.292 1.337 1.302.193.003.388.004.581 0 1.02-.017 1.28-.27 1.283-1.298.006-2.083-.012-4.167.007-6.25.01-1.067.149-2.122.553-3.12.715-1.772 1.822-3.117 3.817-3.509 1.675-.327 3.064.505 3.396 2.122.106.514.185 1.044.183 1.581-.011 2.81-.002 5.621 0 8.432 0 .34-.011.679.004 1.018.03.645.278.927.908 1.012.239.032.485-.002.726.015 1.33.098 1.574-.556 1.56-1.521-.032-2.18-.002-4.36-.01-6.541-.005-1.11.255-2.16.712-3.153.717-1.553 1.826-2.694 3.587-2.96 1.76-.265 3.124.438 3.428 2.432a13.2 13.2 0 0 1 .129 2.023c0 2.834-.003 5.669.002 8.504.002.823.368 1.185 1.187 1.212.218.008.437.004.655.002 1.027-.009 1.354-.326 1.355-1.333.002-3.028-.003-6.057.003-9.085.002-.776-.015-1.547-.15-2.313zM27.797 2.686c-.57-.084-1.15-.097-1.727.034-.41.093-.615.333-.701.728-.117.529-.104 1.061-.027 1.584.095.641.428.892 1.098.926.168.008.338.002.507.002 1.455 0 1.681-.223 1.68-1.667 0-.194.007-.388-.002-.582-.025-.571-.285-.945-.828-1.025zm55.83-.044h-.218c-1.105.012-1.4.302-1.436 1.417-.002.072 0 .144 0 .217-.012 1.56.456 1.718 1.673 1.691 1.46-.031 1.65-.197 1.649-1.67 0-1.467-.19-1.656-1.668-1.655zm27.735 19.89c-.169-.002-.337 0-.506 0v.002c-.241 0-.484-.01-.724.002-.7.031-1.002.329-1.027 1.031-.015.458-.013.918 0 1.376.02.657.303 1 .945 1.055a9.024 9.024 0 0 0 1.59-.005c.433-.04.743-.276.852-.755.126-.553.099-1.109.056-1.655-.061-.77-.403-1.037-1.186-1.05zm-26.1-12.199c-.022-.289-.078-.582-.298-.795-.38-.367-2.249-.34-2.63.014-.285.267-.267.605-.268.942v12.123c0 .774-.011 1.55.006 2.323.014.67.241.969.862 1.044.476.059.969.054 1.446.007.505-.05.808-.403.875-.923.028-.215.015-.435.015-.652V11.204c0-.29.014-.582-.008-.87zm-56.658.543c0-.317-.022-.625-.109-.931-.113-.4-.372-.62-.778-.636a16.574 16.574 0 0 0-1.45 0c-.508.025-.772.288-.855.806a6.656 6.656 0 0 0-.098 1.08c.005 4.308.004 8.615 0 12.923 0 .365.052.72.094 1.08.049.424.286.628.678.74.454.133.912.074 1.368.069.698-.008 1.018-.298 1.125-.976.035-.213.021-.434.021-.651.002-2.227.001-4.454.001-6.68 0-2.274-.001-4.55.003-6.824zM40.34 23.257c-1.85-.21-2.725-1-3.086-2.804-.056-.282-.059-.577-.06-.866a2068.59 2068.59 0 0 1-.002-7.046c0-.14-.045-.292.067-.407.112-.09.237-.066.354-.066.823-.003 1.645.01 2.468-.007.72-.015 1.026-.314 1.055-1 .044-1.04.112-1.674-1.535-1.617-.788.027-1.58.005-2.412.005 0-1.181.002-2.267 0-3.355-.003-1.108-.317-1.388-1.418-1.433-1.439-.06-1.824.323-1.764 1.76.04.984.008 1.971.008 3.03-.43 0-.786-.011-1.143.001-.757.025-1.048.316-1.076 1.056-.006.145-.005.29 0 .436.023.825.31 1.097 1.159 1.125.329.01.668-.064.979.055.094.297.051.564.052.827.005 2.445-.012 4.89.01 7.336.025 2.934 1.684 5.015 4.53 5.657.741.166 1.51.355 2.286.09.349-.118.568-.318.658-.692.064-.267.06-.529.058-.792-.007-.912-.265-1.186-1.188-1.293zm15.947-.96c-1.38 1.017-2.942 1.441-4.645 1.258-1.497-.16-2.772-.782-3.748-1.96-1.368-1.654-1.698-3.563-1.216-5.59.474-1.995 1.732-3.383 3.692-4.043 1.914-.644 3.711-.271 5.396.779.985.615 1.31.548 1.945-.421.596-.91.54-1.255-.341-1.85-2.033-1.37-4.264-1.83-6.688-1.474-3.05.446-5.287 2.021-6.632 4.786-.754 1.547-.972 3.208-.772 4.933.207 1.806.833 3.42 2.052 4.774 1.808 2.011 4.1 2.901 6.915 2.865 2.05.054 3.996-.61 5.728-1.933.626-.478.716-.854.38-1.561-.508-1.07-.993-1.354-2.066-.563zm74.614.523c.388.767.357 1.01-.317 1.56-1.385 1.127-2.99 1.747-4.757 1.937-.382.04-.773.006-1.16.006-2.127.074-4.044-.522-5.727-1.845-1.654-1.3-2.6-3.025-2.988-5.062-.324-1.69-.216-3.364.405-4.987 1.01-2.642 2.884-4.37 5.59-5.145 2.894-.829 5.632-.484 8.132 1.283.67.474.756.891.336 1.59-.024.042-.057.079-.083.12-.665 1.026-1.02 1.106-2.06.425-2.266-1.485-5.098-1.37-7.099.226-1.159.924-1.81 2.158-2.008 3.578-.24 1.715-.015 3.376 1.092 4.817 1.063 1.387 2.454 2.124 4.195 2.251 1.64.12 3.105-.335 4.429-1.277.798-.568 1.313-.877 2.02.523z" fill="#A3A3A3" fill-rule="evenodd"/></svg>