<svg width="300" height="34" viewBox="0 0 300 34" xmlns="http://www.w3.org/2000/svg"><title>logo CoinmarketCap</title><path d="M276.801 9.137h2.722v2.397h.064c.066-.215.233-.486.503-.81.27-.324.615-.632 1.037-.922a6.361 6.361 0 0 1 1.49-.746 5.59 5.59 0 0 1 1.896-.308c1.144 0 2.106.238 2.884.713.777.475 1.415 1.189 1.912 2.138.496-.949 1.198-1.663 2.105-2.138.908-.475 1.825-.713 2.754-.713 1.188 0 2.16.195 2.916.583.757.389 1.35.903 1.782 1.539.432.637.729 1.361.891 2.171.163.81.243 1.647.243 2.512v8.942h-2.916v-8.553c0-.584-.038-1.146-.113-1.686a3.925 3.925 0 0 0-.47-1.426 2.68 2.68 0 0 0-1.004-.987c-.432-.249-1.005-.373-1.717-.373-1.405 0-2.41.432-3.014 1.296-.606.864-.906 1.976-.906 3.337v8.392h-2.917V16.46c0-.734-.038-1.405-.114-2.01-.076-.604-.227-1.128-.453-1.571a2.51 2.51 0 0 0-.972-1.036c-.422-.249-.989-.373-1.702-.373a3.83 3.83 0 0 0-1.505.308 3.55 3.55 0 0 0-1.281.923c-.367.411-.659.935-.875 1.572-.216.636-.324 1.387-.324 2.251v7.971h-2.916V9.137zm-16.881 7.679c0 .778.118 1.495.357 2.154.237.66.572 1.221 1.004 1.685.432.465.96.832 1.587 1.102.626.271 1.329.405 2.107.405.777 0 1.479-.134 2.106-.405a4.644 4.644 0 0 0 1.587-1.102 4.837 4.837 0 0 0 1.005-1.685 6.317 6.317 0 0 0 .357-2.154c0-.778-.12-1.495-.357-2.155a4.864 4.864 0 0 0-1.005-1.685 4.671 4.671 0 0 0-1.587-1.102c-.627-.269-1.329-.404-2.106-.404-.778 0-1.481.135-2.107.404a4.662 4.662 0 0 0-1.587 1.102 4.862 4.862 0 0 0-1.004 1.685 6.279 6.279 0 0 0-.357 2.155zm-3.11 0c0-1.123.211-2.171.632-3.143a8.199 8.199 0 0 1 1.733-2.56 8.139 8.139 0 0 1 5.8-2.365 8.142 8.142 0 0 1 5.8 2.365 8.199 8.199 0 0 1 1.733 2.56c.421.972.632 2.02.632 3.143a7.939 7.939 0 0 1-.632 3.159 7.938 7.938 0 0 1-1.733 2.559 8.214 8.214 0 0 1-2.592 1.718 8.125 8.125 0 0 1-3.208.632 8.121 8.121 0 0 1-3.208-.632 8.192 8.192 0 0 1-2.592-1.718 7.938 7.938 0 0 1-1.733-2.559 7.939 7.939 0 0 1-.632-3.159zm-3.888-3.596c-.54-.562-1.107-.989-1.701-1.28-.595-.292-1.302-.438-2.123-.438-.799 0-1.495.146-2.089.438a4.24 4.24 0 0 0-1.49 1.198 5.373 5.373 0 0 0-.907 1.75 6.82 6.82 0 0 0-.309 2.057c0 .713.119 1.389.356 2.025a5.1 5.1 0 0 0 1.005 1.669c.432.476.95.848 1.555 1.118.605.271 1.285.405 2.042.405.82 0 1.522-.146 2.105-.438.584-.291 1.123-.717 1.621-1.279l2.074 2.073c-.756.843-1.636 1.448-2.641 1.815a9.227 9.227 0 0 1-3.191.551c-1.19 0-2.275-.194-3.257-.583a7.524 7.524 0 0 1-2.543-1.637 7.221 7.221 0 0 1-1.653-2.527c-.388-.983-.583-2.068-.583-3.256 0-1.188.195-2.279.583-3.272a7.493 7.493 0 0 1 1.636-2.561 7.431 7.431 0 0 1 2.528-1.668c.982-.399 2.079-.599 3.289-.599 1.123 0 2.197.2 3.222.599a7.086 7.086 0 0 1 2.674 1.83l-2.203 2.01zm-17.691 11.47a2.054 2.054 0 0 1-1.506-.633 2.054 2.054 0 0 1-.633-1.506c0-.583.211-1.086.633-1.507a2.056 2.056 0 0 1 1.506-.631c.584 0 1.086.21 1.507.631.42.421.632.924.632 1.507a2.06 2.06 0 0 1-.632 1.506 2.054 2.054 0 0 1-1.507.633zm-14.126-13.22c-.779 0-1.481.135-2.107.404a4.652 4.652 0 0 0-1.587 1.102 4.88 4.88 0 0 0-1.005 1.685 6.303 6.303 0 0 0-.356 2.155c0 .778.118 1.495.356 2.154.238.66.573 1.221 1.005 1.685.431.465.96.832 1.587 1.102.626.271 1.328.405 2.107.405.777 0 1.478-.134 2.105-.405a4.658 4.658 0 0 0 1.588-1.102 4.837 4.837 0 0 0 1.005-1.685 6.317 6.317 0 0 0 .356-2.154c0-.778-.119-1.495-.356-2.155a4.864 4.864 0 0 0-1.005-1.685 4.685 4.685 0 0 0-1.588-1.102c-.627-.269-1.328-.404-2.105-.404zm-7.971-2.333h2.916v2.203h.064c.562-.821 1.334-1.458 2.318-1.912a7.144 7.144 0 0 1 3.029-.68c1.188 0 2.263.205 3.224.616.961.41 1.782.983 2.463 1.717a7.752 7.752 0 0 1 1.571 2.576c.367.982.55 2.036.55 3.159 0 1.145-.183 2.208-.55 3.192a7.577 7.577 0 0 1-1.571 2.559 7.23 7.23 0 0 1-2.463 1.701c-.961.41-2.036.616-3.224.616a7.12 7.12 0 0 1-3.111-.697c-.972-.464-1.716-1.095-2.236-1.895h-.064v11.34h-2.916V9.137zm-8.521 7.971c-.692 0-1.4.037-2.123.113a8.317 8.317 0 0 0-1.976.437c-.595.217-1.08.519-1.458.907-.378.389-.568.886-.568 1.491 0 .886.297 1.523.892 1.912.593.389 1.398.583 2.413.583.8 0 1.48-.135 2.042-.405a3.837 3.837 0 0 0 1.361-1.053c.345-.432.593-.913.745-1.442.151-.53.227-1.053.227-1.571v-.972h-1.555zm-8.23-6.092a8.14 8.14 0 0 1 2.851-1.701 9.753 9.753 0 0 1 3.24-.567c1.123 0 2.09.14 2.9.421.81.281 1.474.66 1.992 1.135a4.46 4.46 0 0 1 1.151 1.636c.248.615.372 1.258.372 1.927v7.841c0 .541.011 1.038.033 1.491.022.453.054.886.097 1.296h-2.592a27.997 27.997 0 0 1-.097-2.333h-.065c-.648.994-1.415 1.696-2.301 2.106-.886.41-1.911.616-3.077.616a7.045 7.045 0 0 1-2.042-.292 4.979 4.979 0 0 1-1.701-.874c-.487-.39-.87-.87-1.151-1.443-.28-.572-.421-1.236-.421-1.992 0-.993.221-1.826.665-2.495.442-.67 1.046-1.215 1.814-1.636.767-.422 1.663-.723 2.689-.908a18.744 18.744 0 0 1 3.289-.275h2.139v-.648c0-.389-.076-.778-.227-1.166a3.177 3.177 0 0 0-.68-1.054 3.273 3.273 0 0 0-1.135-.745c-.454-.183-.993-.275-1.619-.275-.562 0-1.054.054-1.476.162a6.61 6.61 0 0 0-1.149.405c-.346.162-.66.351-.94.567-.281.216-.551.421-.81.615l-1.749-1.814zm-6.156-4.504a6.417 6.417 0 0 0-2.463-1.943 7.333 7.333 0 0 0-3.078-.682c-1.296 0-2.468.244-3.515.73a8.07 8.07 0 0 0-2.689 1.993 9.056 9.056 0 0 0-1.735 2.964 10.645 10.645 0 0 0-.615 3.646c0 1.209.194 2.354.583 3.434a8.593 8.593 0 0 0 1.685 2.852 7.893 7.893 0 0 0 2.689 1.943c1.058.476 2.257.713 3.597.713 1.317 0 2.472-.27 3.467-.81.993-.54 1.835-1.296 2.527-2.268l2.624 1.976c-.172.238-.475.578-.906 1.021-.433.443-1.005.886-1.718 1.329-.713.443-1.571.831-2.576 1.166-1.004.334-2.165.502-3.484.502-1.813 0-3.449-.346-4.908-1.037-1.458-.691-2.7-1.598-3.726-2.722a11.833 11.833 0 0 1-2.349-3.807 11.948 11.948 0 0 1-.811-4.292c0-1.772.292-3.408.875-4.91.584-1.501 1.4-2.797 2.448-3.887 1.047-1.091 2.305-1.939 3.774-2.544 1.469-.605 3.089-.907 4.86-.907 1.512 0 2.997.292 4.455.874 1.459.583 2.651 1.48 3.581 2.69l-2.592 1.976zm-20.478 5.152h-4.18v6.967c0 .431.01.858.033 1.279.021.421.102.8.243 1.134.14.335.356.605.648.81.291.205.717.308 1.28.308.344 0 .701-.033 1.069-.097a3.085 3.085 0 0 0 1.005-.357v2.657c-.346.194-.795.33-1.346.405-.551.076-.976.114-1.279.114-1.123 0-1.992-.157-2.609-.471-.616-.312-1.069-.716-1.36-1.214a3.897 3.897 0 0 1-.518-1.668 20.962 20.962 0 0 1-.081-1.864v-8.003h-3.371V9.137h3.371V4.828h2.915v4.309h4.18v2.527zm-14.84 3.889a6.158 6.158 0 0 0-.307-1.783 3.941 3.941 0 0 0-.827-1.409 3.787 3.787 0 0 0-1.377-.939c-.551-.228-1.194-.341-1.928-.341-.713 0-1.366.135-1.959.405a4.793 4.793 0 0 0-1.508 1.053c-.41.432-.728.913-.956 1.442a3.999 3.999 0 0 0-.339 1.572h9.201zm-9.201 2.332c0 .67.145 1.28.437 1.831a4.565 4.565 0 0 0 1.15 1.41 5.361 5.361 0 0 0 1.652.907 5.924 5.924 0 0 0 1.945.324c.907 0 1.695-.211 2.365-.633.669-.42 1.285-.976 1.848-1.668l2.202 1.685c-1.62 2.095-3.888 3.143-6.804 3.143-1.21 0-2.306-.206-3.289-.616a7.154 7.154 0 0 1-2.495-1.701 7.546 7.546 0 0 1-1.571-2.559c-.368-.984-.551-2.047-.551-3.192s.2-2.208.6-3.192a7.901 7.901 0 0 1 1.652-2.559 7.53 7.53 0 0 1 2.511-1.701c.972-.411 2.031-.616 3.175-.616 1.361 0 2.511.238 3.452.713.939.475 1.71 1.096 2.316 1.863a7.384 7.384 0 0 1 1.312 2.592c.27.962.405 1.939.405 2.932v1.037h-12.312zM126.688 0h2.917v15.811l6.609-6.642h4.05l-7.161 6.966 7.777 8.36h-4.147l-7.128-7.971v7.971h-2.917V0zm-11.989 9.137h2.916v2.365h.066c.194-.41.453-.782.777-1.118a5.205 5.205 0 0 1 1.086-.858 5.672 5.672 0 0 1 1.312-.567 4.98 4.98 0 0 1 1.425-.211c.475 0 .908.065 1.296.195l-.13 3.143a8.211 8.211 0 0 0-.712-.163 4.09 4.09 0 0 0-.712-.065c-1.426 0-2.517.4-3.274 1.199-.756.8-1.134 2.041-1.134 3.726v7.712h-2.916V9.137zm-8.521 7.971c-.691 0-1.398.037-2.122.113a8.314 8.314 0 0 0-1.977.437c-.593.217-1.08.519-1.458.907-.378.389-.567.886-.567 1.491 0 .886.297 1.523.892 1.912.593.389 1.398.583 2.414.583.798 0 1.479-.135 2.041-.405a3.842 3.842 0 0 0 1.36-1.053c.346-.432.594-.913.746-1.442a5.75 5.75 0 0 0 .227-1.571v-.972h-1.556zm-8.23-6.092a8.144 8.144 0 0 1 2.852-1.701 9.748 9.748 0 0 1 3.239-.567c1.123 0 2.091.14 2.901.421.809.281 1.474.66 1.993 1.135.517.475.901 1.02 1.149 1.636.248.615.373 1.258.373 1.927v7.841c0 .541.011 1.038.033 1.491.021.453.053.886.097 1.296h-2.593a28.432 28.432 0 0 1-.096-2.333h-.065c-.648.994-1.416 1.696-2.301 2.106-.886.41-1.912.616-3.078.616a7.055 7.055 0 0 1-2.042-.292 5.006 5.006 0 0 1-1.701-.874 4.185 4.185 0 0 1-1.149-1.443c-.281-.572-.422-1.236-.422-1.992 0-.993.222-1.826.665-2.495.442-.67 1.047-1.215 1.814-1.636.766-.422 1.663-.723 2.689-.908a18.735 18.735 0 0 1 3.289-.275h2.139v-.648a3.217 3.217 0 0 0-.908-2.22 3.241 3.241 0 0 0-1.134-.745c-.453-.183-.994-.275-1.62-.275-.562 0-1.053.054-1.474.162a6.634 6.634 0 0 0-1.151.405 5.038 5.038 0 0 0-.939.567 71.3 71.3 0 0 1-.811.615l-1.749-1.814zM69.047 1.554h4.634l7.29 17.368h.129l7.225-17.368h4.634v22.941h-3.11V5.638h-.066L82.04 24.495h-2.074L72.222 5.638h-.065v18.857h-3.11V1.554zM50.514 9.137h2.916v2.365h.064c.368-.821 1.005-1.485 1.911-1.992.908-.508 1.956-.762 3.144-.762.733 0 1.441.113 2.122.341a4.77 4.77 0 0 1 1.782 1.052c.507.475.912 1.086 1.215 1.83.302.746.454 1.627.454 2.641v9.883h-2.917v-9.073c0-.712-.096-1.323-.291-1.83-.194-.507-.453-.918-.777-1.231a2.931 2.931 0 0 0-1.118-.681 4.14 4.14 0 0 0-1.313-.21c-.604 0-1.166.097-1.684.291a3.519 3.519 0 0 0-1.362.923c-.388.422-.691.956-.907 1.604-.216.649-.323 1.415-.323 2.301v7.906h-2.916V9.137zm-7.55 15.358h2.916V9.137h-2.916v15.358zm-.681-20.866c0-.583.211-1.086.632-1.508a2.058 2.058 0 0 1 1.507-.631c.583 0 1.085.21 1.507.631.421.422.632.925.632 1.508a2.06 2.06 0 0 1-.632 1.507c-.422.42-.924.631-1.507.631a2.062 2.062 0 0 1-1.507-.631 2.06 2.06 0 0 1-.632-1.507zM25.857 16.816c0 .778.118 1.495.355 2.154.238.66.572 1.221 1.005 1.685.432.465.961.832 1.588 1.102.626.271 1.328.405 2.105.405.779 0 1.48-.134 2.107-.405a4.658 4.658 0 0 0 1.588-1.102 4.865 4.865 0 0 0 1.004-1.685 6.317 6.317 0 0 0 .356-2.154c0-.778-.119-1.495-.356-2.155a4.893 4.893 0 0 0-1.004-1.685 4.685 4.685 0 0 0-1.588-1.102c-.627-.269-1.328-.404-2.107-.404-.777 0-1.479.135-2.105.404a4.666 4.666 0 0 0-1.588 1.102 4.864 4.864 0 0 0-1.005 1.685 6.327 6.327 0 0 0-.355 2.155zm-3.112 0c0-1.123.211-2.171.632-3.143a8.188 8.188 0 0 1 1.735-2.56 8.138 8.138 0 0 1 5.798-2.365c1.146 0 2.215.211 3.208.632a8.099 8.099 0 0 1 4.327 4.293c.42.972.631 2.02.631 3.143a7.956 7.956 0 0 1-.631 3.159c-.422.983-1 1.836-1.735 2.559a8.192 8.192 0 0 1-2.592 1.718 8.114 8.114 0 0 1-3.208.632 8.12 8.12 0 0 1-3.207-.632 8.176 8.176 0 0 1-2.591-1.718 7.927 7.927 0 0 1-1.735-2.559 7.939 7.939 0 0 1-.632-3.159zM17.4 6.512a6.41 6.41 0 0 0-2.463-1.943 7.33 7.33 0 0 0-3.078-.682c-1.296 0-2.468.244-3.515.73A8.08 8.08 0 0 0 5.655 6.61c-.747.841-1.324 1.83-1.735 2.964a10.645 10.645 0 0 0-.615 3.646c0 1.209.194 2.354.583 3.434a8.593 8.593 0 0 0 1.685 2.852 7.902 7.902 0 0 0 2.689 1.943c1.059.476 2.258.713 3.597.713 1.317 0 2.473-.27 3.467-.81.994-.54 1.835-1.296 2.527-2.268l2.625 1.976c-.173.238-.476.578-.907 1.021-.433.443-1.005.886-1.718 1.329-.712.443-1.572.831-2.575 1.166-1.005.334-2.166.502-3.484.502-1.814 0-3.45-.346-4.909-1.037-1.457-.691-2.7-1.598-3.726-2.722a11.83 11.83 0 0 1-2.348-3.807A11.926 11.926 0 0 1 0 13.22c0-1.772.291-3.408.875-4.91.583-1.501 1.399-2.797 2.447-3.887 1.047-1.091 2.305-1.939 3.774-2.544 1.469-.605 3.089-.907 4.86-.907 1.512 0 2.997.292 4.455.874 1.458.583 2.652 1.48 3.58 2.69L17.4 6.512z" fill="#A3A3A3" fill-rule="evenodd"/></svg>