<svg width="180" height="42" viewBox="0 0 180 42" xmlns="http://www.w3.org/2000/svg"><title>logo_cryptocoins</title><path d="M180 2.74v2.312h-.708V2.83c0-.755-.28-1.208-.865-1.208-.411 0-.734.3-.856.649a1.145 1.145 0 0 0-.059.356v2.425h-.708V2.7c0-.625-.28-1.078-.832-1.078-.453 0-.782.356-.898.714a.963.963 0 0 0-.057.348v2.368h-.709V2.19c0-.406-.008-.74-.032-1.063h.634l.033.633h.024c.222-.373.593-.722 1.253-.722.543 0 .955.324 1.129.786h.015c.124-.218.28-.389.445-.51.239-.18.503-.276.881-.276.528 0 1.31.34 1.31 1.702zm-7.545-1.613h1.038v.543h-1.038v2.117c0 .486.14.762.544.762.19 0 .33-.025.42-.048l.033.534a1.812 1.812 0 0 1-.642.098c-.339 0-.61-.106-.783-.3-.206-.212-.28-.56-.28-1.022V1.67h-.617v-.544h.617v-.94l.708-.187v1.127zM63.598 33.762h-7.75c-.317-1.169.413-3.207 1.343-3.857 1.263-.883 3.514-.913 4.764-.064 1.051.714 1.942 2.81 1.643 3.92zm-1.634-6.028c-.957-.329-1.928-.4-2.917-.343-2.419.137-4.197 1.295-4.925 3.632-.657 2.105-.671 4.25-.122 6.371.512 1.98 1.829 3.269 3.858 3.732 2.05.468 4.094.324 6.092-.334.297-.099.616-.165.868-.461.036-.556.09-1.148-.018-1.718-.264-.063-.41.053-.572.111-1.852.68-3.747.953-5.7.523-.91-.2-1.683-.638-2.162-1.458-.387-.661-.657-1.363-.559-2.253h9.733c.08-.142.118-.184.128-.232a1.99 1.99 0 0 0 .036-.31c.037-1.114.002-2.228-.332-3.3-.557-1.79-1.47-3.293-3.408-3.96zm73.133-13.555c.01 1.077-.062 2.005-.381 2.903-.377 1.056-1.182 1.62-2.24 1.841-.83.174-1.678.155-2.52.012-1.362-.232-2.216-1.101-2.52-2.71-.271-1.426-.255-2.86.1-4.28.339-1.353 1.237-2.097 2.605-2.311a6.699 6.699 0 0 1 2.157.004c1.338.228 2.223.983 2.558 2.307.198.778.272 1.57.241 2.235zm-1.014-6.33c-1.747-.673-3.546-.717-5.326-.155-1.756.556-3.02 1.662-3.604 3.44a9.268 9.268 0 0 0-.447 3.15c-.034 1.182.12 2.364.567 3.494.385.973.97 1.798 1.89 2.369 2.194 1.362 4.518 1.454 6.89.608 1.451-.518 2.516-1.501 3.053-2.974.744-2.038.788-4.105.263-6.193-.451-1.79-1.538-3.065-3.286-3.74zm-26.856 8.715c-.233.982-.82 1.63-1.829 1.883-.75.188-1.5.181-2.247.002-1.115-.267-1.68-1.03-1.877-2.086a10.973 10.973 0 0 1 .01-4.141c.264-1.346 1.017-1.987 2.412-2.156a4.936 4.936 0 0 1 1.579.058c1.083.217 1.718.896 1.956 1.944.17.748.206 1.51.238 2.26-.04.76-.07 1.504-.242 2.236zm3.225-4.924c-.613-2.116-1.946-3.54-4.158-4.082a8.653 8.653 0 0 0-3.144-.173c-2.219.27-3.903 1.314-4.754 3.389-.912 2.223-.896 4.513-.114 6.772.539 1.556 1.624 2.66 3.192 3.27 1.105.43 2.265.526 3.433.444 2.35-.166 4.203-1.132 5.198-3.337.522-1.157.72-2.39.655-3.689.064-.863-.06-1.74-.308-2.594zm-27.341 4.695c-.297 1.66-1.391 2.491-3.196 2.456-.612-.012-1.232-.032-1.836-.194-.126-.232-.094-.426-.094-.614-.003-2.012-.003-4.023 0-6.035 0-1.097.34-1.5 1.425-1.708.557-.105 1.11-.144 1.678-.042.975.175 1.573.736 1.834 1.654.422 1.478.458 2.982.189 4.483zm-.362-8.649c-1.278-.483-2.588-.459-3.905-.273-2.64.374-4.261 2.384-4.212 4.772.089 4.386.025 8.775.028 13.164.001.234-.063.485.146.77 1-.006 2.044.06 3.16-.045V21.13c1.086.274 2.07.263 3.053.216 2.434-.116 4.387-1.549 5.136-3.826.736-2.239.636-4.478-.174-6.686-.567-1.552-1.682-2.563-3.232-3.149zm60.448-4.853c.114.863.07 1.665.034 2.48-.54.128-2.047.132-2.597.014-.105-.796-.07-1.61-.017-2.464.88-.107 1.709-.06 2.58-.03zm-.093 4.712V20.94c-.44.148-1.772.169-2.38.034V7.538a11.556 11.556 0 0 1 2.38.007zm-91.14 13.547V8.65a20.355 20.355 0 0 1 6.819-1.381c.086.983.045 1.87.027 2.792-1.186.145-2.335.142-3.498.54V21.04c-1.15.15-2.225.003-3.349.051zm44.317 17.62c-.436 1.337-1.473 2.04-2.79 2.368-2.023.505-3.98.277-5.856-.623-.062-.03-.117-.076-.226-.147-.09-.564-.038-1.156-.025-1.752.337-.027.54.12.758.226 1.632.796 3.337.915 5.087.494.714-.173 1.177-.643 1.297-1.356.134-.792-.114-1.476-.776-1.98-.787-.602-1.737-.82-2.668-1.077-.914-.253-1.829-.475-2.634-1.03-1.456-1.006-1.53-2.892-.97-4.066.586-1.224 1.57-1.92 2.94-2.207 1.584-.334 3.067-.105 4.543.445.377.14.586.361.547.775-.032.357.067.725-.076 1.088-.226.054-.359-.036-.5-.103-1.338-.627-2.738-.75-4.176-.472-.973.187-1.642.903-1.684 1.75-.039.762.227 1.197.935 1.527 1.199.561 2.502.819 3.743 1.26 2.093.744 3.199 2.825 2.531 4.88zm26.67-20.341c.097.697.076 1.393.006 2.087-.426.302-.903.37-1.358.486-1.524.384-3.06.466-4.603.115-1.894-.431-3.234-1.55-3.884-3.34-.826-2.278-.835-4.599.01-6.881.723-1.95 2.22-3.033 4.256-3.406 1.813-.331 3.576-.078 5.297.528.081.028.153.08.262.138.124.71.068 1.424.044 2.228-.39-.13-.704-.22-1.007-.338-1.267-.49-2.59-.516-3.907-.372-1.544.167-2.51 1.107-2.801 2.694-.254 1.392-.26 2.797.064 4.186.352 1.506 1.298 2.304 2.866 2.489a8.743 8.743 0 0 0 4.15-.512c.16-.059.314-.167.605-.102zM51.3 31.823c.042 2.931.013 5.864.013 8.796 0 .155.006.313-.132.495a7.019 7.019 0 0 1-1.743.003c-.191-.268-.138-.519-.138-.756-.004-2.689-.007-5.378.005-8.067.003-.519-.125-.996-.332-1.457-.459-1.024-1.393-1.342-2.403-1.437a11.063 11.063 0 0 0-4.08.373c-.135.039-.271.08-.487.23v11.083c-.689.113-1.292.085-1.955.035V28.696a9.558 9.558 0 0 1 2.546-.96c1.679-.383 3.37-.54 5.078-.18 2.168.456 3.597 2.086 3.628 4.267zm119.656-14.176c-.114 1.622-1.46 3.07-3.264 3.444-1.714.353-3.4.228-5.032-.425-.762-.305-.798-.354-.785-1.15.007-.425-.075-.859.06-1.265.202-.097.33.026.468.087 1.415.633 2.89.855 4.43.616 1.053-.164 1.71-.837 1.64-1.705-.046-.597-.367-1.024-.879-1.34-.943-.584-2.035-.766-3.061-1.12-.65-.224-1.301-.434-1.843-.876-1.56-1.273-1.66-3.658-.217-5.2a4.05 4.05 0 0 1 1.958-1.173c1.777-.471 3.49-.245 5.161.44.162.066.324.14.487.344.024.601.042 1.216-.01 1.81-.292.103-.478-.023-.667-.1-1.188-.489-2.432-.55-3.688-.436-.987.089-1.584.568-1.707 1.286-.11.64.07 1.018.659 1.327a8.284 8.284 0 0 0 1.722.655c.63.169 1.244.382 1.854.608 1.879.697 2.852 2.198 2.714 4.173zm-83.55-7.415c-.077-.883-.051-1.756-.015-2.67.735-.181 1.464 0 2.279-.138V3.505c1.157-.079 2.203-.043 3.346-.03V7.48h3.222c.097.96.056 1.834.03 2.761-1.046.187-2.088-.02-3.08.121-.165.19-.15.39-.15.574-.004 2.082-.058 4.164.026 6.245.037.93.346 1.209 1.306 1.265.618.037 1.225-.037 1.9-.214.034.91.04 1.748-.002 2.548-.063.065-.082.098-.111.113-1.947 1.086-4.988.178-5.968-1.786-.39-.78-.509-1.618-.509-2.478v-5.517c0-.223.026-.45-.073-.708-.69-.229-1.449.05-2.202-.173zm71.157 10.133c0 .205.036.419-.143.653-.759.073-1.555.072-2.317-.001-.202-.266-.148-.517-.148-.754-.005-2.707-.002-5.413-.006-8.12 0-.276.007-.56-.044-.83-.156-.816-.605-1.416-1.464-1.591-1.586-.324-3.148-.176-4.786.306V21.01c-.9.082-1.697.067-2.546.009V8.735c.73-.474 1.553-.731 2.377-.966 1.572-.447 3.167-.621 4.805-.393 2.536.353 4.256 2.237 4.27 4.766.013 2.741.004 5.482.002 8.223zM40.91 19.378c-.615.277-1.004.822-1.655 1.065l-1.13-1.477c.502-.575 1.192-.86 1.704-1.403-.212-.76-.406-1.533-.453-2.33-.13-2.227.06-4.377 1.66-6.151 1.058-1.173 2.455-1.66 3.986-1.795 1.563-.136 3.091.091 4.564.637.081.03.153.081.287.154.064.85.046 1.716.005 2.676-.839-.257-1.577-.464-2.342-.562-.865-.112-1.714-.1-2.566.11-1.078.266-1.76.902-2.013 1.973a9.494 9.494 0 0 0-.214 2.738c.006.1.006.211.145.298.494-.18.821-.66 1.371-.877.443.442.784.955 1.177 1.486-.587.574-1.291.947-1.905 1.495.3.401.7.63 1.153.767 1.47.45 2.923.276 4.367-.14.234-.068.453-.193.827-.167.053.858.049 1.72-.006 2.626a9.967 9.967 0 0 1-4.708.802c-1.656-.118-3.123-.676-4.254-1.925zm44.918 8.299L81.33 41.059c-.6.134-1.173.074-1.862.057-1.125-3.27-2.014-6.63-3.138-9.913l-.222-.014-3.08 9.901c-.65.085-1.225.068-1.918.021L66.59 27.78c.472-.214 1.369-.238 2.054-.068 1.118 3.322 2.253 6.702 3.39 10.084l.198.015 3.086-10.15c.642-.088 1.213-.068 1.838-.015 1.123 3.386 2.035 6.827 3.177 10.194l.198-.007 3.436-10.17a6.87 6.87 0 0 1 1.86.015zm-17.78-6.114c-.408 1.114-.92 2.178-1.65 3.13a4.53 4.53 0 0 1-5.21 1.451c-.08-.03-.15-.089-.26-.158-.041-.86-.07-1.731.018-2.627.498.023.91.2 1.352.207.533.006.963-.163 1.318-.544.668-.718 1.064-1.587 1.404-2.485.086-.226.003-.44-.08-.655a6511.198 6511.198 0 0 1-4.512-11.67c-.078-.203-.213-.403-.142-.69h3.447l2.991 9.112.134.012 2.94-9.112h3.223c.078.24-.013.4-.07.557a5853.606 5853.606 0 0 1-4.904 13.472zm-43.969-1.328c0 .155-.06.188-.208.124-.468-.205-.94-.4-1.43-.553a11.429 11.429 0 0 0-2.055-.447c-.35-.04-.703-.057-1.055-.072-.561-.025-1.11.028-1.638.214-.909.32-1.544.915-1.858 1.827a6.39 6.39 0 0 0-.316 1.604 11.814 11.814 0 0 0-.042 1.156c.005.072.038.088.098.047.106-.072.208-.146.314-.218.162-.09.302-.211.454-.315.226-.155.448-.314.672-.472.104-.072.16-.067.238.034.247.322.478.658.717.987.128.176.263.349.38.534.07.088.162.167.152.297-.072.12-.201.176-.31.252-.697.49-1.393.98-2.091 1.467-.076.053-.085.104-.041.182.113.205.252.392.41.568.342.323.73.575 1.177.738.316.114.64.176.973.213.284.03.566.024.849.015.184-.005.37-.001.553-.037.471-.038.935-.11 1.396-.21.285-.051.562-.137.84-.217.27-.078.536-.172.8-.27.051-.02.1-.04.157-.012.189-.056.363-.146.544-.222l.181-.076c.071.01.054.063.054.107v3.252c0 .042-.005.084.007.125a.102.102 0 0 0 .022-.009c.003.072-.052.088-.103.107a19.43 19.43 0 0 1-1.81.594c-.42.114-.842.213-1.27.287-.413.07-.828.123-1.245.156-.43.035-.861.022-1.292.016a7.99 7.99 0 0 1-1.179-.118 7.62 7.62 0 0 1-1.721-.474 7.67 7.67 0 0 1-1.926-1.145c-.134-.108-.234-.244-.353-.362a4.68 4.68 0 0 1-.524-.641c-.048-.067-.099-.04-.15-.005-.226.162-.455.32-.682.48-.176.125-.352.25-.53.374-.097.068-.133.064-.2-.03-.259-.355-.518-.712-.775-1.07-.005-.005-.003-.013-.001-.02l-.017-.02a7.354 7.354 0 0 0-.398-.547c-.013-.022-.023-.049-.04-.066-.06-.058-.04-.101.021-.14.05-.123.17-.173.268-.243.454-.32.908-.638 1.364-.955.088-.06.109-.126.085-.222a9.203 9.203 0 0 1-.194-1.022c-.034-.272-.059-.545-.09-.818-.02-.192.036-.376.022-.564-.002-.038.008-.077-.01-.113.002-.42-.001-.842.023-1.261.056-1.026.206-2.034.557-3.005.257-.71.6-1.376 1.082-1.968.369-.454.823-.807 1.32-1.117a7.374 7.374 0 0 1 2.17-.927c.026-.006.052-.015.077-.023.037-.081.12-.08.189-.095.292-.06.587-.107.884-.14.464-.05.929-.086 1.394-.071a12.43 12.43 0 0 1 2.331.278c.08.016.174.012.226.095.225.06.45.117.673.18.59.16 1.168.362 1.742.575.068.026.083.063.083.127-.002.15-.01.298.003.447.045.038.054.09.054.145.001.903.002 1.806-.002 2.708zM17.243 6.767C7.72 6.767 0 14.367 0 23.742c0 9.375 7.72 16.975 17.243 16.975s17.243-7.6 17.243-16.975c0-9.375-7.72-16.975-17.243-16.975z" fill="#A3A3A3" fill-rule="evenodd"/></svg>