<svg width="180" height="35" viewBox="0 0 180 35" xmlns="http://www.w3.org/2000/svg"><title>logo_coindesk</title><path d="M167.585 18.918h.108l7.119-7.37h4.508l-7.943 7.69L180 28.506h-4.651l-7.656-8.8h-.108v8.8h-3.363V1.458h3.363v17.46zm-8.694-3.078c-.381-.62-.918-1.126-1.609-1.52-.693-.393-1.467-.59-2.325-.59a5.33 5.33 0 0 0-1.146.125 3.37 3.37 0 0 0-1.02.393c-.299.18-.536.406-.714.68-.18.275-.269.615-.269 1.02 0 .716.322 1.246.966 1.592.644.346 1.61.662 2.898.948.81.191 1.562.418 2.254.68.69.263 1.293.59 1.806.983a4.25 4.25 0 0 1 1.199 1.413c.286.55.43 1.194.43 1.933 0 1.001-.192 1.848-.573 2.54a4.97 4.97 0 0 1-1.52 1.7 6.227 6.227 0 0 1-2.165.947c-.812.191-1.646.286-2.505.286a9.905 9.905 0 0 1-3.774-.751 7.37 7.37 0 0 1-3.058-2.29l2.396-2.039c.453.669 1.08 1.23 1.879 1.682.798.453 1.675.68 2.629.68.429 0 .841-.042 1.233-.126a3.54 3.54 0 0 0 1.075-.41 2.25 2.25 0 0 0 .769-.752c.19-.31.287-.703.287-1.181 0-.787-.376-1.372-1.128-1.753-.751-.381-1.855-.74-3.31-1.073a20.427 20.427 0 0 1-1.734-.52 5.778 5.778 0 0 1-1.593-.84 4.196 4.196 0 0 1-1.162-1.342c-.298-.536-.448-1.198-.448-1.985 0-.907.185-1.687.555-2.343a4.819 4.819 0 0 1 1.449-1.61 6.355 6.355 0 0 1 2.04-.93 9.171 9.171 0 0 1 2.36-.305c1.217 0 2.391.239 3.524.716 1.133.478 2.009 1.169 2.63 2.075l-2.326 1.967zm-15.777 2.684a6.417 6.417 0 0 0-.34-1.878 4.309 4.309 0 0 0-.894-1.521 4.207 4.207 0 0 0-1.466-1.02c-.586-.25-1.271-.375-2.059-.375-.714 0-1.39.125-2.021.375-.632.25-1.18.59-1.645 1.02-.466.43-.847.936-1.145 1.52a4.822 4.822 0 0 0-.519 1.88h10.09zm3.435 1.36v.572a4.7 4.7 0 0 1-.036.572h-13.488c.024.711.185 1.38.483 2.008a5.277 5.277 0 0 0 1.199 1.634 5.628 5.628 0 0 0 3.829 1.474c1.143 0 2.133-.25 2.967-.751.836-.501 1.492-1.11 1.969-1.825l2.361 1.896c-.907 1.202-1.973 2.087-3.202 2.655-1.228.567-2.594.851-4.096.851-1.289 0-2.481-.214-3.578-.643a8.256 8.256 0 0 1-2.827-1.807c-.787-.775-1.407-1.711-1.86-2.808-.453-1.097-.68-2.314-.68-3.65 0-1.311.22-2.522.663-3.631.442-1.109 1.058-2.058 1.846-2.844a8.469 8.469 0 0 1 2.798-1.843 9.094 9.094 0 0 1 3.477-.662c1.243 0 2.373.204 3.389.609a6.993 6.993 0 0 1 2.58 1.752c.706.764 1.25 1.688 1.632 2.774.382 1.085.574 2.307.574 3.666zm-34.74.124c0 .785.12 1.547.358 2.284a5.803 5.803 0 0 0 1.073 1.962 5.392 5.392 0 0 0 1.753 1.373c.692.345 1.503.517 2.434.517.858 0 1.639-.166 2.342-.499a5.644 5.644 0 0 0 1.808-1.337 6.03 6.03 0 0 0 1.162-1.944 6.58 6.58 0 0 0 .412-2.32c0-.808-.137-1.581-.412-2.319a6.25 6.25 0 0 0-1.162-1.961 5.527 5.527 0 0 0-1.808-1.355c-.703-.333-1.484-.5-2.342-.5-.93 0-1.742.167-2.434.5a5.191 5.191 0 0 0-1.753 1.355 5.807 5.807 0 0 0-1.073 1.961 7.377 7.377 0 0 0-.358 2.283zm11.163 5.814a6.264 6.264 0 0 1-2.63 2.344 7.919 7.919 0 0 1-3.488.804c-1.312 0-2.493-.232-3.542-.697a7.92 7.92 0 0 1-2.683-1.914 8.61 8.61 0 0 1-1.717-2.862 9.997 9.997 0 0 1-.609-3.507c0-1.239.202-2.402.609-3.488a8.53 8.53 0 0 1 1.734-2.844 7.917 7.917 0 0 1 2.701-1.896c1.05-.453 2.206-.68 3.471-.68 1.384 0 2.588.293 3.613.877 1.026.584 1.837 1.294 2.433 2.128h.072V1.458h3.363v27.047h-3.255v-2.683h-.072zM93.134 11.547c.048.43.084.912.107 1.45.024.536.037.983.037 1.341h.107c.214-.453.506-.876.876-1.27s.793-.74 1.27-1.037a6.381 6.381 0 0 1 3.364-.949c1.096 0 2.038.186 2.825.555.787.37 1.444.864 1.968 1.485a6.013 6.013 0 0 1 1.163 2.182c.25.835.376 1.73.376 2.683v10.518h-3.363v-9.408c0-.692-.054-1.348-.161-1.969a4.731 4.731 0 0 0-.59-1.645 3.191 3.191 0 0 0-1.181-1.145c-.502-.287-1.144-.429-1.932-.429-1.336 0-2.428.507-3.274 1.52-.847 1.014-1.27 2.367-1.27 4.06v9.016h-3.363V15.197c0-.454-.012-1.038-.036-1.754a35.606 35.606 0 0 0-.107-1.896h3.184zM82.33 28.505h3.363V11.547H82.33v16.958zm3.9-23.076c0 .621-.22 1.133-.657 1.54a2.243 2.243 0 0 1-1.58.607 2.143 2.143 0 0 1-1.561-.626 2.05 2.05 0 0 1-.638-1.52c0-.62.212-1.14.638-1.557a2.148 2.148 0 0 1 1.562-.626c.615 0 1.142.21 1.579.626.437.418.656.936.656 1.556zM75.604 20.01c0-.809-.126-1.582-.377-2.32a5.872 5.872 0 0 0-1.095-1.943 5.26 5.26 0 0 0-1.776-1.337c-.707-.333-1.514-.5-2.423-.5-.91 0-1.717.167-2.423.5a5.251 5.251 0 0 0-1.777 1.337 5.872 5.872 0 0 0-1.094 1.944 7.142 7.142 0 0 0-.377 2.318c0 .81.126 1.583.377 2.32.251.737.616 1.39 1.094 1.962a5.15 5.15 0 0 0 1.777 1.355c.706.333 1.513.5 2.423.5.909 0 1.716-.167 2.423-.5a5.159 5.159 0 0 0 1.776-1.355 6.087 6.087 0 0 0 1.095-1.962c.25-.737.377-1.51.377-2.32zm3.505-.019c0 1.313-.232 2.518-.697 3.615a8.585 8.585 0 0 1-1.933 2.844 8.71 8.71 0 0 1-2.915 1.86c-1.121.441-2.325.661-3.613.661-1.288 0-2.493-.22-3.614-.661a8.512 8.512 0 0 1-2.898-1.86 8.731 8.731 0 0 1-1.914-2.844c-.464-1.097-.698-2.302-.698-3.615 0-1.311.234-2.51.698-3.595a8.576 8.576 0 0 1 1.914-2.808c.811-.788 1.777-1.401 2.898-1.843a9.798 9.798 0 0 1 3.614-.662 9.8 9.8 0 0 1 3.613.662 8.868 8.868 0 0 1 2.915 1.843 8.434 8.434 0 0 1 1.933 2.808c.465 1.085.697 2.284.697 3.595zm-21.5-4.15c-.359-.548-.895-1.007-1.61-1.377a4.917 4.917 0 0 0-2.29-.554c-.883 0-1.665.167-2.344.5a5.345 5.345 0 0 0-1.735 1.341 5.878 5.878 0 0 0-1.091 1.95 7.188 7.188 0 0 0-.375 2.326c0 .811.124 1.587.375 2.326.25.74.613 1.39 1.09 1.95a5.273 5.273 0 0 0 1.754 1.341c.691.335 1.478.501 2.361.501.86 0 1.64-.166 2.343-.5a4.78 4.78 0 0 0 1.735-1.36l2.255 2.04c-.716.834-1.61 1.484-2.684 1.949-1.073.465-2.29.697-3.649.697-1.312 0-2.522-.214-3.631-.643a8.606 8.606 0 0 1-2.88-1.807c-.812-.775-1.449-1.711-1.915-2.808-.465-1.097-.697-2.326-.697-3.686 0-1.335.226-2.552.68-3.65a8.302 8.302 0 0 1 1.896-2.825 8.47 8.47 0 0 1 2.88-1.824c1.109-.43 2.308-.645 3.595-.645 1.193 0 2.38.239 3.56.716 1.18.478 2.117 1.169 2.809 2.075l-2.433 1.967zm-41.8 2.08c-.018.868.738 1.662 1.59 1.669.876.006 1.6-.734 1.598-1.635 0-.869-.692-1.608-1.526-1.63-.859-.025-1.643.729-1.661 1.596zm14.463 10.986c-.912-.004-1.626.703-1.62 1.603.007.888.741 1.593 1.651 1.584a1.613 1.613 0 0 0 1.581-1.65c-.016-.843-.741-1.534-1.612-1.537zm.044-9.447c.879-.017 1.592-.775 1.568-1.668-.026-.904-.744-1.552-1.688-1.522-.906.027-1.513.677-1.503 1.609.01.94.686 1.598 1.623 1.581zm4.429-14.052a4.47 4.47 0 0 1-3.806 3.71c-1.498.211-2.763-.21-3.83-1.248-.621-.604-1.296-1.106-2.143-1.326-1.649-.425-3.063.036-4.251 1.213-.755.746-1.614 1.227-2.682 1.363-1.492.19-2.772-.226-3.825-1.277-.6-.598-1.268-1.06-2.076-1.295-1.197-.35-2.347-.175-3.378.499-2.084 1.362-2.866 3.46-1.952 5.781.213.542.582.99.973 1.416.942 1.028 1.408 2.217 1.294 3.629-.074.929-.377 1.75-.963 2.47-.19.232-.393.454-.589.682-1.176 1.363-1.42 2.92-.743 4.547.722 1.739 2.012 2.818 3.987 2.934 1.407.083 2.52-.512 3.506-1.424.72-.666 1.562-1.032 2.529-1.2 1.87-.324 3.69.765 4.48 2.1.937 1.58.966 3.202.027 4.762-.943 1.566-2.41 2.289-4.236 2.184-1.112-.064-2.073-.524-2.859-1.325-.46-.468-.965-.872-1.587-1.104-1.76-.655-3.35-.378-4.688.954-.994.99-2.146 1.56-3.552 1.478-1.822-.105-3.196-.974-3.943-2.66-.763-1.726-.528-3.363.674-4.838.189-.232.401-.446.604-.667 1.528-1.66 1.358-4.418-.228-5.91-.69-.649-1.155-1.43-1.356-2.369-.329-1.53.052-2.866 1.059-4.039.245-.284.535-.533.757-.832 1.159-1.565 1.224-4.008-.55-5.739C.756 7.247.364 6.498.137 5.624-.364 3.699.66.954 3.38.22 4.045.04 4.7.04 5.434.065c1.004.033 1.8.593 2.55 1.262 1.865 1.659 3.877 1.681 5.822.108.822-.665 1.668-1.192 2.752-1.37.574-.093.928-.08 1.653 0 1.101.122 1.96.617 2.75 1.342 1.678 1.543 3.996 1.573 5.712.038.822-.735 1.68-1.276 2.813-1.38a5.61 5.61 0 0 1 1.58.08c.48.087.71.157 1.023.295 1.565.685 3.038 2.394 2.657 4.967z" fill="#A3A3A3" fill-rule="evenodd"/></svg>